<?xml version="1.0" encoding="UTF-8" standalone="no" ?>
<!DOCTYPE svg PUBLIC "-//W3C//DTD SVG 1.1//EN" "http://www.w3.org/Graphics/SVG/1.1/DTD/svg11.dtd">
<svg xmlns="http://www.w3.org/2000/svg" xmlns:xlink="http://www.w3.org/1999/xlink" version="1.1" width="1280" height="1024" viewBox="0 0 1280 1024" xml:space="preserve">
<desc>Created with Fabric.js 5.3.0</desc>
<defs>
</defs>
<g transform="matrix(1 0 0 1 640 512)" id="background-logo"  >
<rect style="stroke: none; stroke-width: 0; stroke-dasharray: none; stroke-linecap: butt; stroke-dashoffset: 0; stroke-linejoin: miter; stroke-miterlimit: 4; fill: rgb(255,255,255); fill-opacity: 0; fill-rule: nonzero; opacity: 1;"  paint-order="stroke"  x="-640" y="-512" rx="0" ry="0" width="1280" height="1024" />
</g>
<g transform="matrix(1.9211538461538462 0 0 1.9211538461538462 721.2889942614718 462.5503487227273)" id="text-logo"  >
<g style=""  paint-order="stroke"   >
		<g transform="matrix(1 0 0 1 0 0)" id="text-logo-path-0"  >
<path style="stroke: none; stroke-width: 0; stroke-dasharray: none; stroke-linecap: butt; stroke-dashoffset: 0; stroke-linejoin: miter; stroke-miterlimit: 4; fill: rgb(49,48,153); fill-rule: nonzero; opacity: 1;"  paint-order="stroke"  transform=" translate(-136.83, 21)" d="M 32.4 0 L 38.88 0 L 38.88 -42 L 32.4 -42 L 32.4 -23.58 L 9.72 -23.58 L 9.72 -42 L 3.24 -42 L 3.24 0 L 9.72 0 L 9.72 -17.82 L 32.4 -17.82 Z M 57.6 0 L 87.54 0 L 87.54 -5.76 L 64.08 -5.76 L 64.08 -18.12 L 86.22 -18.12 L 86.22 -23.88 L 64.08 -23.88 L 64.08 -36.24 L 87.54 -36.24 L 87.54 -42 L 57.6 -42 Z M 118.44 -16.44 L 118.5 -16.44 L 118.5 0 L 124.98 0 L 124.98 -16.44 L 125.04 -16.44 L 140.76 -42 L 133.92 -42 L 121.74 -22.08 L 109.56 -42 L 102.72 -42 Z M 184.98 0 L 192.66 0 L 177.36 -20.7 L 192.6 -42 L 185.16 -42 L 173.7 -25.62 L 161.64 -42 L 154.2 -42 L 169.44 -21.18 L 154.32 0 L 161.76 0 L 173.1 -16.2 Z M 208.86 0 L 215.34 0 L 215.34 -42 L 208.86 -42 Z M 231.3 0 L 238.14 0 L 241.56 -9.12 L 260.16 -9.12 L 263.58 0 L 270.42 0 L 254.46 -42 L 247.26 -42 Z M 243.36 -14.88 L 250.86 -35.52 L 258.36 -14.88 Z" stroke-linecap="round" />
</g>
</g>
</g>
<g transform="matrix(1.4422432361228643 0 0 1.4422432361228643 260.85361970100354 511.69311898423115)" id="logo-logo"  >
<g style=""  paint-order="stroke"   >
		<g transform="matrix(0.23001379341092723 0 0 0.23001379341092723 -29.306179237693357 4.2008709385995076)"  >
<radialGradient id="SVGID_220457" gradientUnits="userSpaceOnUse" gradientTransform="matrix(1 0 0 1 50.21048709711715 193.319073824844)"  cx="323.5267848005671" cy="327.0056053499971" r="323.5267848005671" fx="323.5267848005671" fy="327.0056053499971">
<stop offset="20%" style="stop-color:rgb(212,89,200);stop-opacity: 1"/>
<stop offset="23.23324%" style="stop-color:rgb(205,89,200);stop-opacity: 1"/>
<stop offset="48.352312%" style="stop-color:rgb(156,89,200);stop-opacity: 1"/>
<stop offset="70.420368%" style="stop-color:rgb(121,89,200);stop-opacity: 1"/>
<stop offset="88.385848%" style="stop-color:rgb(99,89,200);stop-opacity: 1"/>
<stop offset="100%" style="stop-color:rgb(49,48,153);stop-opacity: 1"/>
</radialGradient>
<path style="stroke: none; stroke-width: 1; stroke-dasharray: none; stroke-linecap: butt; stroke-dashoffset: 0; stroke-linejoin: miter; stroke-miterlimit: 4; fill: url(#SVGID_220457); fill-rule: nonzero; opacity: 1;"  paint-order="stroke"  transform=" translate(-373.73727189768425, -520.3246791748411)" d="M 454.039093 464.9541321 C 468.6090698 464.9541321 480.4199829 476.7651978 480.4199829 491.3348694 C 480.4199829 505.9046021 468.6090698 517.7156983 454.039093 517.7156983 C 439.4694214 517.7156983 427.6585083 505.9046021 427.6585083 491.3348694 C 427.6585083 476.7651978 439.4694214 464.9541321 454.039093 464.9541321 z M 697.0231323 811.1576538 C 699.4877319000001 831.6346435 682.7004394 848.8890991000001 662.3644409000001 847.2182617000001 C 646.8410034000001 845.9428711 634.2925415000001 833.3921509 633.0183716000001 817.8685913 C 632.2534180000001 808.5488281 635.4660034000001 799.9785156 641.1393433000002 793.6625366000001 C 641.2864991000001 791.5682983 641.3872681000001 790.1329956000001 641.5344239000002 788.0388183000001 L 616.3460084000002 750.2565307000001 C 613.5425416000002 746.0513915000001 608.4135743000002 744.1707153000001 603.4931642000001 745.3246459000001 C 599.1571046000001 746.3415526000001 594.5665285000001 746.6961669000001 589.8288576000001 746.2667846 C 569.0716555000001 744.3856811 552.5278932000001 727.3442382000001 551.2393801000001 706.5418090000001 C 550.7612917 698.8228149 552.3408205000001 691.5136108 555.48053 685.1075439000001 C 558.1841433000001 679.5911865000002 557.0277712000001 672.9691162000001 552.5018313 668.8151245000001 L 524.1046145 642.7518310000002 C 521.1977541 640.0838622000001 516.9550784 639.5420532000002 513.4304812 641.3155517000001 C 508.0362246 644.0297851000001 501.94543480000004 645.5609741000002 495.4947207 645.5609741000002 C 482.5380862 645.5609741000002 471.0234683 639.3992920000002 463.71344020000004 629.8480835000001 C 461.28652980000004 626.6770630000001 457.16473410000003 625.3256226000001 453.356354 626.5261231000002 L 390.499573 646.3397217000002 C 386.3665469 647.6425171000002 383.2172549 651.0213623000002 382.2276614 655.2404175000001 C 379.1637881 668.3031006000001 367.4417727 678.0296021000001 353.4443362 678.0296021000001 C 340.4948428 678.0296021000001 329.4947207 669.7037964000001 325.4940188 658.1138917000002 C 324.2508547 654.5125123000001 321.4908755 651.6402589000002 317.8963626 650.3773194000001 L 224.48551969999997 617.5574952000002 C 221.86834749999997 616.6379395000001 219.00480679999998 617.0856324000001 216.69306969999997 618.6190186000002 C 211.21601889999997 622.2518921000002 204.46052579999997 624.1102295000003 197.24285909999998 623.3666993000003 C 183.61956809999998 621.9632569000003 172.58677689999996 611.0863648000003 171.0125124 597.4817506000003 C 170.1025698 589.6180421000003 172.2856905 582.2852174000003 176.49780289999998 576.5291749000003 C 178.47660839999998 573.8250733000003 178.6445772 570.2030030000003 176.9052736 567.3389894000003 L 125.87065899999999 483.3021242000003 C 123.5829316 479.5350038000003 118.9796373 477.9548647000003 114.81446089999999 479.3957521000003 C 108.95606249999999 481.4224245000003 102.59183519999999 482.3637697000003 95.95793169999999 481.9703981000003 C 72.08431259999999 480.5547182000003 51.11245749999999 459.0711671000003 50.24354189999999 435.1714174000003 C 49.23552719999999 407.4457094000003 71.41260549999998 384.6522218000003 98.913376 384.6522218000003 C 102.9591981 384.6522218000003 106.8881074 385.1484376000003 110.6449434 386.0811158000003 C 117.5746996 387.8015137000003 124.8688585 385.4007264000003 129.1364595 379.6763306000003 L 207.9496004 273.95922850000034 C 211.56779500000002 269.1058960000003 212.718918 262.79382320000036 210.8540193 257.03466800000035 C 209.06837480000002 251.52023320000035 208.2396089 245.57525640000034 208.5643312 239.39494330000036 C 209.8582002 214.77038580000035 229.8175203 194.75407420000036 254.4385988 193.39534000000037 C 270.8062441 192.49208070000037 285.5289003 199.68060310000038 294.99124159999997 211.32006840000037 C 298.28860489999994 215.37608340000037 303.47897349999994 217.38827520000038 308.6272279 216.48321540000038 L 395.491089 201.21263130000037 C 398.7012941 200.64828500000036 401.9821779 202.48767100000038 402.85327159999997 205.62855540000038 C 403.8531495 209.23370370000038 401.5227357 212.83297740000037 397.92178359999997 213.46627820000037 L 317.9487 227.5273285 C 310.974762 228.7535095 305.8918763 234.81582640000002 305.9008179 241.89672850000002 L 305.90097049999997 242.02211000000003 C 305.90097049999997 246.61102300000002 305.2631226 251.04965210000003 304.0736695 255.2571564 C 302.2178651 261.821991 305.53402719999997 268.73239140000004 311.8717957 271.2570496 L 381.9252015 299.16302490000004 C 384.22225960000003 300.07803340000004 386.80029310000003 299.46960450000006 388.56149300000004 297.7341309 C 393.32385260000007 293.0412293 399.86145030000006 290.1452332 407.0756837 290.1452332 C 414.2919618 290.1452332 420.8311158 293.0430909 425.5936891 297.73849490000003 C 426.82864390000003 298.95605470000004 428.5771791 299.49469000000005 430.2596742 299.0743714 L 471.31878670000003 288.81704720000005 C 474.5000916 288.02227790000006 477.9112855 289.67034920000003 478.96588140000006 292.7752381 C 480.16934210000005 296.3183594 478.07324220000004 299.9995728 474.5770264000001 300.87326060000004 L 436.79486090000006 310.31332410000005 C 434.67449960000005 310.84310930000004 433.28781130000004 312.82012950000006 433.41293340000004 315.00207530000006 C 433.44186410000003 315.50634780000007 433.45654300000007 316.0144349000001 433.45654300000007 316.52597060000005 L 433.45654300000007 316.55740370000007 C 433.45529180000005 318.4507753000001 434.60897830000005 320.15341200000006 436.3678894000001 320.85418710000005 L 511.1833801000001 350.66033940000005 C 514.5088501000001 351.98516850000004 516.3040771000001 355.80609140000007 514.8581543 359.08074960000005 C 513.4865112 362.18710340000007 509.9311218 363.6045533 506.83050540000005 362.36935430000005 L 433.11483770000007 333.00289920000006 C 430.72415170000005 332.05050660000006 428.04321290000007 332.73959350000007 426.2785340000001 334.61270140000005 C 421.4680482000001 339.71878050000004 414.6445618000001 342.90676880000007 407.07568370000007 342.90676880000007 C 392.50598160000004 342.90676880000007 380.69479380000007 331.0956421000001 380.69479380000007 316.5259705000001 L 380.69482430000005 316.4823914000001 C 380.69705210000006 313.8497315000001 379.0931092000001 311.4820862000001 376.6473695 310.5077820000001 L 298.90045180000004 279.53552250000007 C 294.5940858 277.81997680000006 289.7468873 278.5403443000001 286.01226820000005 281.28628540000005 C 277.94366470000006 287.21887210000006 267.98104870000003 290.72500610000003 257.1980897 290.72500610000003 C 249.0933534 290.72500610000003 241.45425430000003 288.742157 234.73414620000003 285.2373352 C 226.55957040000004 280.9739685 216.48530590000001 283.40725710000004 210.97436530000002 290.7984619 L 139.93869030000002 386.070343 C 135.55404670000001 391.9509888 135.16535960000002 400.01953119999996 139.27310190000003 406.09683229999996 C 141.95730600000002 410.06805419999995 144.07043470000002 414.4570313 145.49716200000003 419.14544679999995 C 146.43692030000003 422.23364259999994 149.42872630000002 424.2335509999999 152.65226760000004 424.0638427999999 L 295.51049820000003 416.54315189999994 C 298.62091080000005 416.37939459999996 301.42327900000004 414.6347961999999 302.9627687 411.92712409999996 C 307.49859630000003 403.9494324 316.07083140000003 398.56735239999995 325.90402240000003 398.56735239999995 C 334.6915285 398.56735239999995 342.47302260000004 402.86520399999995 347.2663271 409.47265639999995 C 349.1265871 412.03698749999995 352.0913698 413.56442279999993 355.2550051 413.3978883 L 486.7380068 406.4761354 C 490.0147402 406.30361949999997 493.0533144 408.56930559999995 493.50280779999997 411.8196413 C 494.01620499999996 415.5319521 491.25262469999996 418.7622072 487.63980119999997 418.9522402 L 359.53057879999994 425.6889651 C 355.66683979999993 425.89215110000004 352.32876609999994 428.50381500000003 351.2635194999999 432.2233584 C 349.6980287999999 437.6895144 346.41278099999994 442.4280093 342.0302430999999 445.81832909999997 C 339.5031739999999 447.7732546 338.1603700999999 450.88803119999994 338.5153809999999 454.06323269999996 L 356.02398699999986 610.6615603 C 356.5401917999999 615.2785037 359.62600729999986 619.1726077000001 363.9673463999999 620.8264163 C 368.8477784999999 622.6856692 373.1078187999999 625.8001101 376.3539125999999 629.7761233 C 379.4932863999999 633.6213992 384.72338889999986 635.0649417 389.4577943999999 633.5725711 L 448.6953736999999 614.8998416000001 C 452.7420960999999 613.6242679000001 455.49261489999986 609.8696902 455.4886780999999 605.6267093 L 455.4886170999999 605.554932 C 455.4886170999999 582.5303348 474.9393921999999 564.0487674 498.30557269999986 565.645203 C 518.1511842999998 567.0010990000001 534.1875611999999 583.1512455000001 535.4214478999999 603.0047611 C 535.8761597999999 610.3209842 534.3586426999999 617.2431644 531.3543091999999 623.2977299 C 529.4993286999999 627.0359501 530.3729248999999 631.5522465 533.4474487999998 634.3740238 L 563.2642212999998 661.7403568000001 C 567.1253052999998 665.284119 572.7039795999998 666.4174808000001 577.5485840999999 664.4185184 C 583.1222534999998 662.1186527 589.2893067999998 660.9659427 595.7591553999998 661.2609256000001 C 618.0014649999998 662.2749027000001 635.9375000999999 680.709595 636.3768311999999 702.9706424000001 C 636.5746460999999 712.9953006000001 633.3053589999998 722.2451785000001 627.6911622999999 729.6138919000001 C 624.4987184999999 733.8040164000001 624.1940309999999 739.5127566000001 627.1160279999999 743.8957523000001 L 652.5015259999999 781.9739383000001 C 654.3023682999999 782.6793216000001 655.6141359 783.1931155000001 657.4149780999999 783.8984988000001 C 661.2075195999998 782.9674685000001 665.2623901999999 782.7059939000001 669.4545898999999 783.2643435000001 C 683.8219604 785.1780396 695.2911377 796.7672119 697.0231323 811.1576538 z M 229.9476013 593.9589844 C 229.9476013 595.4841309 229.8320007 596.9822388 229.6091766 598.4450684 C 228.97219850000002 602.626709 231.25407410000003 606.6973267 235.2447509 608.0994263 L 315.0091552 636.1242676 C 320.1983947 637.9475098 326.0023193 636.1333618000001 329.1397094 631.6157227000001 C 331.47668450000003 628.2506104000001 334.4947814 625.3942872000001 337.9944152 623.2457276000001 C 341.9764098 620.8010865000001 344.072998 616.1740113000001 343.5538329 611.5303956000001 L 326.43231189999995 458.39386000000013 C 326.00485219999996 454.57083140000015 323.21484359999994 451.46984880000014 319.48272689999993 450.53723160000015 C 319.3411863999999 450.5018617000002 319.20007309999994 450.46533220000015 319.05944809999994 450.42767350000014 C 315.29272449999996 449.4192812000001 311.29272449999996 450.7368166000001 309.04315169999995 453.92184460000016 L 227.66539 569.1391602 C 225.2576294 572.5481568 224.9546966 576.9968262 226.8259888 580.727356 C 228.8228455 584.7081909 229.9476013 589.2018433 229.9476013 593.9589844 z M 187.5740204 560.8439331 C 189.33741759999998 563.7476196 192.683136 565.2058715999999 196.0436554 564.7080077999999 C 197.45800780000002 564.4984741 198.9050446 564.3893431999999 200.3778839 564.3893431999999 C 202.5114441 564.3893431999999 204.5915069 564.6165160999999 206.5961151 565.0471800999999 C 211.099472 566.0145872999999 215.75558469999999 564.3531492999999 218.4128876 560.5908812999999 L 300.55734259999997 444.28793329999985 C 302.44509889999995 441.61520379999985 302.8267213 438.15985099999983 301.56774909999996 435.13958739999987 L 301.52352909999996 435.03344729999986 C 299.9841004 431.34030149999984 296.288147 429.01458739999987 292.292511 429.22470099999987 L 153.4058685 436.5281067999999 C 150.0741882 436.70330819999987 147.3718872 439.1771240999999 146.7526397 442.45544439999986 C 145.1927642 450.7135620999999 141.5511169 458.23425299999985 136.3896941 464.4501648999999 C 133.8542022 467.5036621999999 133.5081786 471.8158264999999 135.56834400000002 475.20822149999987 L 187.5740204 560.8439331 z" stroke-linecap="round" />
</g>
		<g transform="matrix(0.23001379341092723 0 0 0.23001379341092723 42.809018595749706 -22.20465541997362)"  >
<linearGradient id="SVGID_220458" gradientUnits="userSpaceOnUse" gradientTransform="matrix(1 0 0 1 422.44049957528205 156.7919518961645)"  x1="264.82230817844936" y1="0" x2="264.8223081784496" y2="497.46595126670684">
<stop offset="0%" style="stop-color:rgb(243,188,7);stop-opacity: 1"/>
<stop offset="100%" style="stop-color:rgb(247,107,28);stop-opacity: 1"/>
</linearGradient>
<path style="stroke: none; stroke-width: 1; stroke-dasharray: none; stroke-linecap: butt; stroke-dashoffset: 0; stroke-linejoin: miter; stroke-miterlimit: 4; fill: url(#SVGID_220458); fill-rule: nonzero; opacity: 1;"  paint-order="stroke"  transform=" translate(-687.2628077537315, -405.5249275295179)" d="M 926.3709717 447.0575562 C 921.526062 446.06964120000004 916.8533325000001 446.2422791 912.5086670000001 447.2649842 L 850.3659668 342.0781556 C 848.1451416 338.3191224 848.72229 333.59533700000003 851.6530151000001 330.359192 C 859.9782104000001 321.1664735 864.8425903000001 308.78176890000003 864.1868286 295.2583619 C 862.9678345 270.1192628 842.3255615 249.82629400000002 817.1702881 249.0062714 C 803.559082 248.5625611 791.1506958 253.707428 782.0595703 262.3197937 C 778.2055054 265.9708862 772.5267944 266.9234924 767.6903686 264.7340393 L 685.0277709000001 227.3120117 C 680.5871581 225.3016968 677.7216796 220.7819671 678.0447997000001 215.91819759999998 C 678.2196044000001 213.2875671 678.1317748000001 210.5849456 677.7484740000001 207.8328857 C 675.2349242000001 189.7868652 660.2340697000001 175.6893768 642.0666503000001 174.3033142 C 625.4373168000001 173.0346069 610.7947997000001 182.16758729999998 603.9572143000001 195.8760223 C 601.7655029000001 200.27005 597.1938476000001 202.9542694 592.3069457000001 202.475296 L 509.65701280000013 194.3747406 C 504.8053893000001 193.899231 500.64288320000014 190.5365143 499.3880309000001 185.8259125 C 494.7871703000001 168.5547638 478.6754760000001 155.98069769999998 459.7665709000001 156.8327942 C 439.47186260000007 157.7473297 423.0436705000001 174.4630127 422.4572447000001 194.7698212 C 421.8177489000001 216.9131165 439.5774840000001 235.0645142 461.5766295000001 235.0645142 C 465.9351195000001 235.0645142 470.1226195000001 234.34127809999998 474.0384215000001 233.0262146 L 491.4803465000001 258.6326599 C 493.7483824000001 261.9623718 493.8302916000001 266.2597046 491.8663633000001 269.7773743 C 489.5119321000001 273.9945374 488.2809751000001 278.92373660000004 488.5818784000001 284.1625977 C 489.3147580000001 296.9217225 499.4002073000001 307.5126648 512.1110837000001 308.84170539999997 C 514.8952634000001 309.13281259999997 517.5996091000001 308.9840394 520.1685788000001 308.4618531 C 522.9781491000001 307.8907777 525.8497922000001 309.0900269 527.4638059000001 311.4595643 L 547.8558347000002 341.396576 C 551.0570676000002 346.0962525 549.8394773000002 352.46716319999996 545.1763913000002 355.7214967 C 525.7882687000002 369.2523805 513.4340207000002 392.16128549999996 514.7196652000002 417.8807069 C 516.4788815000003 453.0756837 544.2485348000002 481.9923097 579.3381955000002 485.2318727 C 585.3074338000002 485.78295909999997 591.1312863000002 485.5742494 596.7409055000002 484.71264659999997 C 601.8571775000001 483.92681899999997 606.8195188000002 486.8689882 608.7287595000001 491.6802674 L 632.2258298000002 550.8931275 C 633.3839109000002 553.8114014 632.3184201000001 557.1129761 629.7156980000002 558.8689576 C 620.4915159000002 565.0924073 614.6653440000002 575.9653931 615.6135251000002 588.1314088 C 616.8374021000002 603.8349000000001 629.6208493000001 616.5262452000001 645.3320310000001 617.6464234 C 659.5929563000002 618.663147 672.0509031000001 610.3784791 677.2654416000001 598.2456055 L 759.9269406000002 620.3869629 C 759.8978268000002 620.9474487 759.8823239000002 621.5114745999999 759.8823239000002 622.0792236 C 759.8823239000002 640.520813 775.3956296000002 655.3390502999999 794.0841061000002 654.1959228 C 810.5614621000002 653.1881103 823.7865597000002 639.4606322999999 824.2280270000002 622.9583739999999 C 824.3450924000002 618.5830077999999 823.5855709000002 614.4005736999999 822.1147458000003 610.5701903999999 C 820.2407224000002 605.6898802999999 821.2785642000002 600.1748046999999 824.8641354000002 596.3705443999999 L 903.6821896000002 512.7458495999998 C 906.0120236000002 510.27395629999984 909.4713131000002 509.2106322999998 912.7838742000002 509.9624633999998 C 915.0746457000002 510.4823913999998 917.4579465000003 510.7580871999998 919.9061887000003 510.7580871999998 C 938.5861203000003 510.7580871999998 953.5484616000002 494.8414611999998 951.9708249000003 475.8304443999998 C 950.7999878 461.7215881 940.2428589 449.8861084 926.3709717 447.0575562 z M 638.9946289 252.458374 C 650.7520751999999 252.458374 661.2948607999999 247.27107239999998 668.4677733999999 239.062561 C 670.5350341 236.6968383 673.9233397999999 235.9946441 676.7853392999999 237.2903442 L 760.1052245999999 275.0109253 C 765.5433959999999 277.4729004 768.6267089999999 283.3036499 767.5851439999999 289.1816101 C 767.0960693 291.9415588 766.8399046999999 294.7817993 766.8399046999999 297.6826172 C 766.8399046999999 302.6681824 767.5937498999999 307.4761353 768.9886473999999 312.0036316 C 770.1071776999999 315.6341248 768.4437254999999 319.5350342 765.0012205999999 321.14151 L 646.4387205999999 376.4705505 C 639.3044432999999 365.0623169 629.0366819999999 355.8234253 616.8374632999999 349.9498596 C 613.8337401999999 348.5036316 612.2269285999998 345.1776123 612.9576414999999 341.9249267 L 631.7683103999999 258.18927 C 632.5214232 254.83697510000002 635.4992673999999 252.45571900000002 638.9351194999999 252.4583282 L 638.9946289 252.458374 z M 537.4284058 296.3596191 C 540.1992187999999 291.8382873 541.6473999 286.4197387 541.2268067 280.6378784 C 540.2843018 267.6810913 529.7189332 257.17517089999996 516.7581177 256.2900696 C 515.0866089 256.17590329999996 513.4462281 256.2187805 511.84951779999994 256.4045716 C 507.99072259999997 256.8536072 504.2049865999999 255.1273957 502.01797479999993 251.9166413 L 488.71023549999995 232.37965400000002 C 486.77816759999996 229.54316720000003 487.14172349999996 225.75265510000003 489.54248039999993 223.30012520000002 C 493.0427244999999 219.72436530000002 495.86242669999996 215.48037730000001 497.7927244999999 210.77682500000003 C 498.9789732999999 207.88626100000002 501.9739378999999 206.16316230000004 505.0835264999999 206.46810920000004 L 594.4111936999999 215.22828680000003 C 597.5361326999999 215.53474430000003 600.0047605999999 217.89961250000005 600.6158446 220.97950750000004 C 602.6473387 231.21798710000004 608.6724852 240.01513680000005 617.0012816 245.68505860000005 C 619.4745482 247.36877440000004 620.7300414 250.34156800000005 620.0742186 253.26078800000005 L 601.0978392 337.73480230000007 C 600.2942502999999 341.31222540000005 596.9290159999999 343.6657410000001 593.2820432999999 343.2872925000001 C 590.8696898 343.0369568000001 588.4218748 342.90676880000007 585.9432370999999 342.90676880000007 C 580.6455076 342.90676880000007 575.4875486 343.4952087000001 570.5215451999999 344.59606930000007 C 567.6836545999998 345.22515870000007 564.7541501999999 344.0185241000001 563.1177975999999 341.6161499000001 L 537.6025387999999 304.1575623000001 C 536.0100708 301.8196411 535.9503174 298.7715149 537.4284058 296.3596191 z M 668.7156982 554.072998 C 666.4611206000001 556.3932495 663.0232544 557.0756225 660.03656 555.8318481 C 656.2353515 554.2489013 652.5737304 553.4638061 648.1988525 553.4638061 C 647.8523559 553.4638061 647.1116943000001 553.3912963 646.7493286 553.4456787 L 620.3418579 487.0826721 C 618.4544067 482.3262024 620.2653808 476.95687860000004 624.5643921000001 474.1811218 C 638.3942871 465.25140380000005 648.9290772 451.6630554 653.9675293 435.6379089 C 654.7862549 433.03393550000004 657.4832153 431.50570680000004 660.1556397 432.0615844 L 744.7651978 449.6604003 C 749.0874024 450.5594176 752.6646119 453.7462157 753.7821045000001 458.01715079999997 C 753.8612061 458.31933589999994 753.9454956000001 458.6194152 754.0349121 458.9172973 C 755.0830688000001 462.409027 754.1082153000001 466.19311519999997 751.5676269 468.80773919999996 L 668.7156982 554.072998 z M 815.7781982 587.8104248 C 812.2079467 591.5986328 806.7845459 592.9945679 801.8250732 591.4130858999999 C 798.7460327 590.4312133 795.4659423 589.9004516 792.060913 589.9004516 C 782.170349 589.9004516 773.3239745000001 594.3636474 767.422058 601.3852538 C 764.0415648 605.4069823 758.6452025 607.1141967 753.5703124 605.7548217 L 679.8587035 586.0106810999999 C 679.8609008000001 585.8572998 679.8703612 585.7058105 679.8703612 585.5519409 C 679.8703612 580.5100097 678.7070922 575.7415161 676.6380614000001 571.494873 C 675.1635741000001 568.4685058 675.6510619000001 564.857666 677.9971312000001 562.4432983 L 759.6186522000002 478.44433590000006 C 762.3885497000001 475.59378050000004 766.5632933000002 474.77267450000005 770.2988280000002 476.13058470000004 C 773.1090697000002 477.1521301 776.1420287000002 477.70962520000006 779.3056029000002 477.70962520000006 C 787.8706664000001 477.70962520000006 795.4793700000001 473.62594600000006 800.2974242000001 467.30053710000004 C 802.7073363000002 464.13668820000004 806.6382445000002 462.5299072 810.5319823000001 463.33981320000004 L 881.0153197000001 478.0003967 C 884.7969359000001 478.7869568 887.6621703000001 481.7749023 888.4935301 485.546936 C 889.288452 489.15350340000003 890.6874998000001 492.53298950000004 892.5803831000001 495.57324220000004 C 894.9310301 499.348877 894.5772093 504.20147710000003 891.5267332000001 507.43814090000006 L 815.7781982 587.8104248 z M 882.6761475 465.5886536 L 812.0194091999999 450.8920288 C 808.4191284 450.14315799999997 805.6474609999999 447.3978577 804.6097411999999 443.8699646 C 801.3927001999999 432.9331055 791.2839354999999 424.9480896 779.3056029999999 424.9480896 C 771.1450805 424.9480896 763.8540648999999 428.6558228 759.0166014999999 434.4767151 C 756.6212767999999 437.3590393 752.7490843999999 438.5638123 749.0798949999999 437.8006287 L 661.5979003999998 419.6043396 C 659.0692138999998 419.0783691 657.2570190999999 416.8495483 657.2580565999998 414.2667236 L 657.2581175999998 414.2218628 C 657.2581175999998 407.018219 656.1798094999998 400.0692444 654.1885374999997 393.5166626 C 653.1419676999997 390.07278440000005 654.7329710999998 386.38275150000004 657.9946897999997 384.8606567 L 773.1151731999997 331.1379394 C 775.9948728999997 329.7940673 779.3682859999998 330.4397277 781.6498411999997 332.6518249 C 790.4164427999997 341.1517333 802.3674314999997 346.38558950000004 815.5427854999997 346.38558950000004 C 820.1574094999997 346.38558950000004 824.6194456999997 345.73883050000006 828.8478391999997 344.53604120000006 C 833.1278074999997 343.31860350000005 837.6857908999997 345.1707458000001 839.9490354999997 349.00192250000003 L 897.1741941999996 445.8721312 C 899.2665403999996 449.41406240000003 898.8433225999996 453.9186095 896.0783689999996 456.96463 C 894.8071897999996 458.3649901 893.6578367999996 459.8778685 892.6470335999996 461.4866637 C 890.5549927 464.8161621 886.5258789 466.3894043 882.6761475 465.5886536 z" stroke-linecap="round" />
</g>
</g>
</g>
<g transform="matrix(1.9211538461538462 0 0 1.9211538461538462 810.1391446917128 563.5359485152022)" id="tagline-6f87d234-341b-4678-a719-7d7755852664-logo"  >
<g style=""  paint-order="stroke"   >
		<g transform="matrix(1 0 0 1 0 0)" id="tagline-6f87d234-341b-4678-a719-7d7755852664-logo-path-0"  >
<path style="stroke: none; stroke-width: 0; stroke-dasharray: none; stroke-linecap: butt; stroke-dashoffset: 0; stroke-linejoin: miter; stroke-miterlimit: 4; fill: rgb(247,107,28); fill-rule: nonzero; opacity: 1;"  paint-order="stroke"  transform=" translate(-89.33987572060742, 13.299999999999999)" d="M 14.36 0 L 22.53 0 L 22.53 -13.3 L 18.43 -13.3 L 18.43 -3.65 L 14.52 -3.65 C 8.59 -3.65 5.81 -7.11 5.81 -13.19 C 5.78 -19.3 9.5 -22.95 15.43 -22.95 L 21.96 -22.95 L 21.96 -26.6 L 15.35 -26.6 C 6.57 -26.6 1.56 -21.55 1.56 -13.07 C 1.52 -4.98 6.31 -0.04 14.36 0 Z M 26.9 0 L 35.07 0 C 41.5 0 45.07 -2.51 45.07 -7.37 C 45.07 -11.82 43.02 -13.83 36.29 -15.54 C 32.38 -16.53 30.4 -17.75 30.4 -20.14 C 30.4 -21.85 31.27 -22.99 34.5 -22.99 L 43.17 -22.99 L 43.17 -26.6 L 34.39 -26.6 C 29.15 -26.6 26.14 -23.86 26.14 -19.68 C 26.14 -15.69 29.45 -13.15 34.81 -11.78 C 39.71 -10.56 40.81 -9.99 40.81 -7.26 C 40.81 -4.9 38.76 -3.61 34.92 -3.61 L 26.9 -3.61 Z M 56.73 0 L 60.84 0 L 60.84 -22.95 L 69.2 -22.95 L 69.2 -26.6 L 48.37 -26.6 L 48.37 -22.95 L 56.73 -22.95 Z M 97.28 -6.61 L 99.79 0 L 104.01 0 L 101.35 -7.26 C 100.4 -9.92 99.52 -11.48 97.58 -12.31 C 100.78 -13.26 102.75 -15.73 102.75 -19.11 C 102.75 -24.13 99.9 -26.6 94.92 -26.6 L 81.51 -26.6 L 81.51 0 L 85.61 0 L 85.61 -10.91 L 92.04 -10.91 C 94.47 -10.91 95.87 -10.34 97.28 -6.61 Z M 85.61 -14.55 L 85.61 -22.95 L 94.77 -22.95 C 97.43 -22.95 98.5 -21.58 98.5 -19.04 C 98.5 -16.45 96.67 -14.55 94.01 -14.55 Z M 106.51 0 L 125.48 0 L 125.48 -3.65 L 110.62 -3.65 L 110.62 -11.48 L 124.64 -11.48 L 124.64 -15.12 L 110.62 -15.12 L 110.62 -22.95 L 125.48 -22.95 L 125.48 -26.6 L 106.51 -26.6 Z M 142.08 0 L 148.24 0 L 148.24 -3.65 L 142.31 -3.65 C 136 -3.65 132.85 -6.99 132.85 -13.34 C 132.85 -19.57 135.77 -22.95 141.44 -22.95 L 147.67 -22.95 L 147.67 -26.6 L 141.4 -26.6 C 132.89 -26.6 128.59 -21.89 128.59 -13.3 C 128.55 -4.67 132.89 0 142.08 0 Z M 164.27 0.46 C 172.25 0.46 177.12 -4.71 177.12 -13.3 C 177.08 -21.93 172.25 -27.06 164.27 -27.06 C 156.18 -27.06 151.35 -21.89 151.35 -13.3 C 151.32 -4.67 156.18 0.46 164.27 0.46 Z M 164.27 -3.34 C 158.92 -3.34 155.61 -7.11 155.61 -13.34 C 155.57 -19.53 158.92 -23.26 164.27 -23.26 C 169.52 -23.26 172.86 -19.49 172.86 -13.34 C 172.82 -7.07 169.52 -3.34 164.27 -3.34 Z" stroke-linecap="round" />
</g>
</g>
</g>
</svg>